<svg width="19" height="19" viewBox="0 0 19 19" fill="none" xmlns="http://www.w3.org/2000/svg">
<path d="M8.3 1.38564C9.04256 0.956922 9.95744 0.956922 10.7 1.38564L15.9272 4.40359C16.6698 4.83231 17.1272 5.62461 17.1272 6.48205V12.5179C17.1272 13.3754 16.6698 14.1677 15.9272 14.5964L10.7 17.6144C9.95744 18.0431 9.04256 18.0431 8.3 17.6144L3.07276 14.5964C2.3302 14.1677 1.87276 13.3754 1.87276 12.5179V6.48205C1.87276 5.62461 2.3302 4.83231 3.07276 4.40359L8.3 1.38564Z" stroke="#C5115E" stroke-width="1.2"/>
<path d="M10.1987 5L10.0879 11.2173H8.90748L8.79668 5H10.1987ZM9.4998 13.8082C9.26401 13.8082 9.0623 13.7259 8.89469 13.5611C8.72708 13.3935 8.64469 13.1918 8.64753 12.956C8.64469 12.723 8.72708 12.5241 8.89469 12.3594C9.0623 12.1918 9.26401 12.108 9.4998 12.108C9.72992 12.108 9.92878 12.1918 10.0964 12.3594C10.264 12.5241 10.3492 12.723 10.3521 12.956C10.3492 13.1122 10.308 13.2557 10.2285 13.3864C10.1518 13.5142 10.0495 13.6165 9.92168 13.6932C9.79384 13.7699 9.65321 13.8082 9.4998 13.8082Z" fill="#C5115E"/>
</svg>
