<svg width="24" height="24" viewBox="0 0 24 24" fill="none" xmlns="http://www.w3.org/2000/svg">
<path d="M13.0327 2C13.3205 2.00031 13.5973 2.10875 13.8065 2.30316C14.0158 2.49758 14.1417 2.76328 14.1586 3.04599C14.1754 3.32871 14.082 3.60709 13.8973 3.82426C13.7126 4.04143 13.4505 4.181 13.1648 4.21444L13.0327 4.22222H7.38725C7.1107 4.22226 6.84378 4.32217 6.63712 4.50302C6.43046 4.68386 6.29843 4.93305 6.26607 5.20333L6.25817 5.33333V18.6667C6.25821 18.9388 6.35974 19.2015 6.54351 19.4049C6.72728 19.6082 6.9805 19.7382 7.25515 19.77L7.38725 19.7778H12.4681C12.7559 19.7781 13.0327 19.8865 13.242 20.0809C13.4512 20.2754 13.5772 20.5411 13.594 20.8238C13.6109 21.1065 13.5174 21.3849 13.3327 21.602C13.148 21.8192 12.886 21.9588 12.6002 21.9922L12.4681 22H7.38725C6.52327 22 5.69192 21.6752 5.0633 21.0919C4.43469 20.5086 4.05633 19.711 4.00565 18.8622L4 18.6667V5.33333C3.99995 4.4831 4.33006 3.66498 4.92278 3.04638C5.51551 2.42777 6.32604 2.05544 7.18854 2.00556L7.38725 2H13.0327ZM17.4764 8.07111L20.6694 11.2144C20.8811 11.4228 21 11.7054 21 12C21 12.2946 20.8811 12.5772 20.6694 12.7856L17.4764 15.9289C17.2645 16.1372 16.9772 16.2542 16.6777 16.2541C16.3782 16.254 16.091 16.1368 15.8793 15.9283C15.6676 15.7198 15.5487 15.4371 15.5488 15.1424C15.5489 14.8476 15.668 14.565 15.8798 14.3567L17.1455 13.1111H11.0327C10.7332 13.1111 10.446 12.994 10.2343 12.7857C10.0226 12.5773 9.90359 12.2947 9.90359 12C9.90359 11.7053 10.0226 11.4227 10.2343 11.2143C10.446 11.006 10.7332 10.8889 11.0327 10.8889H17.1455L15.8798 9.64333C15.668 9.43499 15.5489 9.15236 15.5488 8.85761C15.5487 8.56287 15.6676 8.28016 15.8793 8.07167C16.091 7.86318 16.3782 7.74599 16.6777 7.74589C16.9772 7.74578 17.2645 7.86277 17.4764 8.07111Z" fill="#AEAFB5"/>
</svg>
