<svg width="26" height="26" viewBox="0 0 26 26" fill="none" xmlns="http://www.w3.org/2000/svg">
<g clip-path="url(#clip0_253_413)">
<g clip-path="url(#clip1_253_413)">
<path d="M4.72683 22.5784V21.2978C4.72683 20.8068 4.41463 20.4867 3.8795 20.4867C3.61198 20.4867 3.32212 20.572 3.12143 20.8495C2.96543 20.6147 2.7425 20.4867 2.40806 20.4867C2.18503 20.4867 1.9622 20.5507 1.78375 20.7855V20.5294H1.31555V22.5784H1.78375V21.4471C1.78375 21.0843 1.98444 20.9135 2.29665 20.9135C2.60865 20.9135 2.76485 21.1056 2.76485 21.4471V22.5784H3.23305V21.4471C3.23305 21.0843 3.45588 20.9135 3.74574 20.9135C4.05794 20.9135 4.21394 21.1056 4.21394 21.4471V22.5784H4.72683ZM11.6606 20.5294H10.9026V19.9104H10.4344V20.5294H10.0108V20.9348H10.4343V21.8741C10.4343 22.3437 10.635 22.6211 11.1702 22.6211C11.3708 22.6211 11.5937 22.5571 11.7499 22.4717L11.616 22.0875C11.4823 22.1728 11.3263 22.1942 11.2147 22.1942C10.9918 22.1942 10.9026 22.0662 10.9026 21.8527V20.9348H11.6606V20.5294ZM15.6293 20.4866C15.3617 20.4866 15.1834 20.6147 15.0719 20.7855V20.5294H14.6037V22.5784H15.0719V21.4258C15.0719 21.0843 15.2279 20.8922 15.5177 20.8922C15.6069 20.8922 15.7184 20.9136 15.8076 20.9349L15.9414 20.5081C15.8522 20.4867 15.7184 20.4867 15.6293 20.4867V20.4866ZM9.63179 20.7001C9.40876 20.5506 9.09666 20.4867 8.76222 20.4867C8.22718 20.4867 7.8705 20.7428 7.8705 21.1483C7.8705 21.4899 8.13801 21.6819 8.60622 21.746L8.82914 21.7674C9.07442 21.81 9.20818 21.8741 9.20818 21.9808C9.20818 22.1302 9.02983 22.2369 8.71763 22.2369C8.40553 22.2369 8.16025 22.1302 8.00415 22.0235L7.78122 22.365C8.0265 22.5357 8.36094 22.6211 8.69529 22.6211C9.31959 22.6211 9.67638 22.3437 9.67638 21.9594C9.67638 21.5966 9.38652 21.4044 8.94056 21.3405L8.71763 21.3191C8.51694 21.2977 8.36094 21.2551 8.36094 21.127C8.36094 20.9776 8.51694 20.8922 8.76222 20.8922C9.02983 20.8922 9.29735 20.9989 9.43111 21.063L9.63179 20.7001ZM22.0727 20.4867C21.8051 20.4867 21.6267 20.6147 21.5152 20.7855V20.5294H21.047V22.5784H21.5152V21.4258C21.5152 21.0843 21.6713 20.8922 21.9611 20.8922C22.0503 20.8922 22.1619 20.9136 22.251 20.9349L22.3848 20.5081C22.2956 20.4867 22.1619 20.4867 22.0727 20.4867ZM16.0975 21.5539C16.0975 22.1728 16.5433 22.6211 17.2346 22.6211C17.5467 22.6211 17.7696 22.5571 17.9925 22.3864L17.7696 22.0235C17.5912 22.1515 17.4129 22.2155 17.2122 22.2155C16.8332 22.2155 16.5657 21.9594 16.5657 21.5539C16.5657 21.1697 16.8332 20.9135 17.2122 20.8922C17.4129 20.8922 17.5912 20.9562 17.7696 21.0843L17.9925 20.7215C17.7696 20.5507 17.5467 20.4867 17.2346 20.4867C16.5433 20.4867 16.0975 20.9349 16.0975 21.5539ZM20.4228 21.5539V20.5294H19.9546V20.7855C19.7985 20.5934 19.5756 20.4867 19.2857 20.4867C18.6838 20.4867 18.2156 20.9349 18.2156 21.5539C18.2156 22.1728 18.6838 22.6211 19.2857 22.6211C19.5978 22.6211 19.8208 22.5144 19.9546 22.3223V22.5784H20.4228V21.5539ZM18.706 21.5539C18.706 21.191 18.9513 20.8922 19.3525 20.8922C19.7316 20.8922 19.9992 21.1697 19.9992 21.5539C19.9992 21.9167 19.7316 22.2155 19.3525 22.2155C18.9513 22.1941 18.706 21.9167 18.706 21.5539ZM13.1099 20.4867C12.4856 20.4867 12.0396 20.9135 12.0396 21.5539C12.0396 22.1942 12.4855 22.6211 13.1321 22.6211C13.4442 22.6211 13.7564 22.5357 14.0017 22.3437L13.7787 22.0235C13.6003 22.1515 13.3774 22.2369 13.1545 22.2369C12.8646 22.2369 12.5748 22.1089 12.5078 21.7459H14.0909V21.5753C14.1132 20.9135 13.712 20.4867 13.1099 20.4867ZM13.1099 20.8708C13.3997 20.8708 13.6004 21.0417 13.6449 21.3618H12.5302C12.5748 21.0843 12.7755 20.8708 13.1099 20.8708ZM24.7258 21.5539V19.7183H24.2576V20.7855C24.1015 20.5934 23.8786 20.4867 23.5887 20.4867C22.9868 20.4867 22.5186 20.9349 22.5186 21.5539C22.5186 22.1728 22.9868 22.6211 23.5887 22.6211C23.9009 22.6211 24.1238 22.5144 24.2576 22.3223V22.5784H24.7258V21.5539ZM23.0091 21.5539C23.0091 21.191 23.2543 20.8922 23.6556 20.8922C24.0347 20.8922 24.3022 21.1697 24.3022 21.5539C24.3022 21.9167 24.0347 22.2155 23.6556 22.2155C23.2543 22.1941 23.0091 21.9167 23.0091 21.5539ZM7.35761 21.5539V20.5294H6.8894V20.7855C6.7333 20.5934 6.51037 20.4867 6.22051 20.4867C5.61855 20.4867 5.15035 20.9349 5.15035 21.5539C5.15035 22.1728 5.61855 22.6211 6.22051 22.6211C6.53272 22.6211 6.75565 22.5144 6.8894 22.3223V22.5784H7.35761V21.5539ZM5.61855 21.5539C5.61855 21.191 5.86382 20.8922 6.2651 20.8922C6.64413 20.8922 6.91175 21.1697 6.91175 21.5539C6.91175 21.9167 6.64413 22.2155 6.2651 22.2155C5.86382 22.1941 5.61855 21.9167 5.61855 21.5539Z" fill="black"/>
<path d="M9.47546 4.96899H16.4985V17.05H9.47546V4.96899Z" fill="#FF5F00"/>
<path d="M9.92154 11.0097C9.92154 8.55512 11.1255 6.37794 12.9759 4.96917C11.616 3.94465 9.8993 3.32568 8.02648 3.32568C3.58952 3.32568 0 6.7621 0 11.0097C0 15.2572 3.58952 18.6937 8.02638 18.6937C9.89919 18.6937 11.6159 18.0747 12.9759 17.0501C11.1255 15.6628 9.92154 13.4643 9.92154 11.0097Z" fill="#EB001B"/>
<path d="M25.9741 11.0097C25.9741 15.2572 22.3846 18.6937 17.9477 18.6937C16.0749 18.6937 14.3582 18.0747 12.9982 17.0501C14.871 15.6415 16.0527 13.4643 16.0527 11.0097C16.0527 8.55512 14.8486 6.37794 12.9982 4.96917C14.3581 3.94465 16.0749 3.32568 17.9477 3.32568C22.3846 3.32568 25.9741 6.78349 25.9741 11.0097Z" fill="#F79E1B"/>
</g>
</g>
<defs>
<clipPath id="clip0_253_413">
<rect width="26" height="26" fill="white"/>
</clipPath>
<clipPath id="clip1_253_413">
<rect width="26" height="19.3488" fill="white" transform="translate(0 3.32568)"/>
</clipPath>
</defs>
</svg>
