<svg width="57" height="57" viewBox="0 0 57 57" fill="none" xmlns="http://www.w3.org/2000/svg">
<g clip-path="url(#clip0_253_824)">
<path d="M28.5 57C44.2401 57 57 44.2401 57 28.5C57 12.7599 44.2401 0 28.5 0C12.7599 0 0 12.7599 0 28.5C0 44.2401 12.7599 57 28.5 57Z" fill="#34AADF"/>
<path d="M11.8613 28.2529C11.8613 28.2529 26.1113 22.4047 31.0534 20.3454C32.948 19.5217 39.3728 16.8858 39.3728 16.8858C39.3728 16.8858 42.3382 15.7327 42.091 18.5332C42.0086 19.6864 41.3497 23.7225 40.6908 28.0881C39.7023 34.2659 38.6315 41.0202 38.6315 41.0202C38.6315 41.0202 38.4668 42.9147 37.0665 43.2442C35.6662 43.5737 33.3598 42.0911 32.948 41.7615C32.6184 41.5145 26.7702 37.8078 24.6286 35.9956C24.052 35.5014 23.3931 34.5131 24.7109 33.3598C27.6763 30.6416 31.2182 27.2645 33.3598 25.1229C34.3483 24.1344 35.3367 21.828 31.2182 24.6286C25.37 28.6647 19.6041 32.4538 19.6041 32.4538C19.6041 32.4538 18.2861 33.2774 15.8151 32.5361C13.3439 31.7948 10.4609 30.8063 10.4609 30.8063C10.4609 30.8063 8.48418 29.5708 11.8613 28.2529Z" fill="white"/>
</g>
<defs>
<clipPath id="clip0_253_824">
<rect width="57" height="57" fill="white"/>
</clipPath>
</defs>
</svg>
