<svg width="55" height="56" viewBox="0 0 55 56" fill="none" xmlns="http://www.w3.org/2000/svg">
<g clip-path="url(#clip0_253_844)">
<path d="M48.125 0H6.875C3.07804 0 0 3.13401 0 7V49C0 52.866 3.07804 56 6.875 56H48.125C51.922 56 55 52.866 55 49V7C55 3.13401 51.922 0 48.125 0Z" fill="#7B519D"/>
<path fill-rule="evenodd" clip-rule="evenodd" d="M45.3229 37.7843C44.0125 36.7103 42.6123 35.7462 41.234 34.7614C38.485 32.7956 35.9707 32.6428 33.9195 35.8055C32.7676 37.5811 31.1551 37.6589 29.469 36.8799C24.8209 34.734 21.2316 31.4276 19.1291 26.6173C18.1991 24.489 18.2113 22.581 20.3873 21.0758C21.5394 20.2797 22.7001 19.3378 22.6073 17.5984C22.4862 15.3304 17.0778 7.75105 14.942 6.95108C14.0583 6.62001 13.1782 6.64155 12.279 6.94922C7.27103 8.66401 5.19671 12.8576 7.18327 17.823C13.1097 32.6369 23.5393 42.9499 37.8963 49.2444C38.7148 49.6028 39.6241 49.7461 40.0845 49.8748C43.3532 49.9082 47.1822 46.7018 48.288 43.5196C49.3527 40.4582 47.1026 39.2431 45.3229 37.7843ZM29.2252 8.46987C39.721 10.1132 44.5616 15.1948 45.8981 25.9584C46.0221 26.9526 45.6583 28.4486 47.0515 28.4762C48.5075 28.5045 48.1567 27.0306 48.1689 26.0354C48.292 15.8981 39.6107 6.50035 29.5286 6.15385C28.768 6.2653 27.194 5.61977 27.0958 7.35566C27.0304 8.52597 28.3556 8.33369 29.2252 8.46987Z" fill="white"/>
<path fill-rule="evenodd" clip-rule="evenodd" d="M31.2782 11.4211C30.2687 11.2972 28.9359 10.8129 28.7 12.2392C28.4537 13.7362 29.9391 13.5842 30.8936 13.8017C37.376 15.2769 39.6332 17.6792 40.7005 24.2264C40.8564 25.1809 40.5467 26.6665 42.1399 26.4203C43.3206 26.2372 42.8941 24.9638 42.9928 24.2199C43.0451 17.9341 37.7551 12.2129 31.2782 11.4211Z" fill="white"/>
<path fill-rule="evenodd" clip-rule="evenodd" d="M31.8734 16.5612C31.1995 16.5781 30.5381 16.6524 30.2904 17.3856C29.9184 18.4816 30.701 18.7429 31.4975 18.8731C34.1567 19.3078 35.5562 20.9043 35.8219 23.6044C35.8936 24.3372 36.3504 24.931 37.0456 24.8474C38.0091 24.7304 38.0962 23.8572 38.0667 23.0281C38.1143 19.9947 34.7469 16.4885 31.8734 16.5612Z" fill="white"/>
</g>
<defs>
<clipPath id="clip0_253_844">
<rect width="55" height="56" fill="white"/>
</clipPath>
</defs>
</svg>
