<svg width="42" height="42" viewBox="0 0 42 42" fill="none" xmlns="http://www.w3.org/2000/svg">
<path d="M33.0142 19.3463C33.0142 19.3463 33.5153 21.8377 33.6281 22.3596H31.4253L32.481 19.4464C32.4679 19.4669 32.6983 18.8365 32.8301 18.4484L33.0142 19.3463ZM40 9.21454V32.7855C39.9997 33.6379 39.6659 34.4554 39.0721 35.0581C38.4782 35.6609 37.6729 35.9997 36.833 36H5.16696C4.32713 35.9997 3.52178 35.6609 2.92793 35.0581C2.33408 34.4554 2.00031 33.6379 2 32.7855V9.21454C2.00031 8.36209 2.33408 7.54465 2.92793 6.94187C3.52178 6.3391 4.32713 6.00032 5.16696 6H36.833C37.6729 6.00032 38.4782 6.3391 39.0721 6.94187C39.6659 7.54465 39.9997 8.36209 40 9.21454ZM12.0614 26.0358L16.2306 15.6436H13.427L10.8347 22.7417L10.5509 21.3025L9.62707 16.5211C9.47508 15.8582 9.00722 15.6701 8.42655 15.6436H4.15881L4.1125 15.8509C5.08987 16.0943 6.02739 16.48 6.89591 16.996L9.25777 26.0358H12.0614ZM18.2896 26.049L19.9521 15.6436H17.3005L15.6451 26.049H18.2896ZM27.5186 22.6476C27.5316 21.4628 26.8192 20.5589 25.2956 19.8152C24.3659 19.3391 23.7983 19.0185 23.7983 18.5291C23.8113 18.0868 24.2804 17.6312 25.3218 17.6312C26.0001 17.6118 26.674 17.7468 27.2941 18.0265L27.5316 18.1398L27.895 15.8895C27.1369 15.5949 26.3318 15.445 25.5201 15.4472C22.9005 15.4472 21.06 16.867 21.0469 18.8883C21.0267 20.3817 22.3662 21.2121 23.3696 21.7135C24.392 22.2222 24.7423 22.5573 24.7423 23.0056C24.7292 23.7023 23.9111 24.0229 23.1523 24.0229C22.0966 24.0229 21.529 23.8554 20.6645 23.4673L20.3154 23.2997L19.9461 25.6368C20.566 25.9249 21.7143 26.1792 22.9017 26.1924C25.6851 26.1985 27.4996 24.7991 27.5198 22.644L27.5186 22.6476ZM36.833 26.049L34.6956 15.6436H32.6437C32.0107 15.6436 31.5286 15.8317 31.2579 16.5078L27.3191 26.0502H30.1025C30.1025 26.0502 30.5573 24.7642 30.657 24.4906H34.0615C34.1411 24.8594 34.3786 26.0502 34.3786 26.0502L36.833 26.049Z" fill="#3344DD"/>
</svg>
