<svg width="66" height="65" viewBox="0 0 66 65" fill="none" xmlns="http://www.w3.org/2000/svg">
<g clip-path="url(#clip0_253_827)">
<path d="M0.153442 64.9937L4.79665 48.3133C1.93493 43.4206 0.422856 37.8905 0.422856 32.2004C0.422856 14.4397 15.1091 -0.00756836 33.1264 -0.00756836C41.8739 -0.00756836 50.0814 3.34272 56.2728 9.44028C62.4461 15.5201 65.8479 23.6209 65.8479 32.2182C65.8479 49.9789 51.1616 64.4262 33.1444 64.4262H33.1264C27.6543 64.4262 22.2738 63.0792 17.5042 60.5084L0.153442 64.9937ZM18.2957 54.6953L19.2857 55.2805C23.461 57.7269 28.2486 59.0028 33.1264 59.0205H33.1444C48.1375 59.0205 60.3217 47.0197 60.3217 32.255C60.3217 25.0936 57.4961 18.3752 52.3669 13.3238C47.2377 8.27231 40.416 5.47173 33.1444 5.47173C18.1513 5.47173 5.94907 17.4726 5.94907 32.2373C5.94907 37.2887 7.38895 42.217 10.1063 46.489L10.7547 47.4996L8.00125 57.3727L18.2957 54.6953Z" fill="white"/>
<path d="M1.2865 63.8766L5.76857 47.7637C2.99708 43.0486 1.5572 37.695 1.5572 32.2183C1.5572 15.077 15.7214 1.12744 33.1263 1.12744C41.5671 1.12744 49.5052 4.37109 55.4619 10.2389C61.42 16.1244 64.7135 23.9231 64.6955 32.236C64.6955 49.3772 50.5313 63.3269 33.1263 63.3269H33.1083C27.8167 63.3269 22.6334 62.0154 18.0263 59.5513L1.2865 63.8766Z" fill="url(#paint0_linear_253_827)"/>
<path d="M0.153442 64.9937L4.79665 48.3133C1.93493 43.4206 0.422856 37.8905 0.422856 32.2004C0.422856 14.4397 15.1091 -0.00756836 33.1264 -0.00756836C41.8739 -0.00756836 50.0814 3.34272 56.2728 9.44028C62.4461 15.5201 65.8479 23.6209 65.8479 32.2182C65.8479 49.9789 51.1616 64.4262 33.1444 64.4262H33.1264C27.6543 64.4262 22.2738 63.0792 17.5042 60.5084L0.153442 64.9937ZM18.2957 54.6953L19.2857 55.2805C23.461 57.7269 28.2486 59.0028 33.1264 59.0205H33.1444C48.1375 59.0205 60.3217 47.0197 60.3217 32.255C60.3217 25.0936 57.4961 18.3752 52.3669 13.3238C47.2377 8.27231 40.416 5.47173 33.1444 5.47173C18.1513 5.47173 5.94907 17.4726 5.94907 32.2373C5.94907 37.2887 7.38895 42.217 10.1063 46.489L10.7547 47.4996L8.00125 57.3727L18.2957 54.6953Z" fill="url(#paint1_linear_253_827)"/>
<path d="M24.9551 18.7472C24.3428 17.4002 23.6957 17.3825 23.1194 17.3647C22.6515 17.3469 22.0933 17.3469 21.5532 17.3469C21.0131 17.3469 20.1314 17.5424 19.376 18.3575C18.6206 19.1547 16.5143 21.1047 16.5143 25.0758C16.5143 29.0292 19.4482 32.8568 19.8439 33.4065C20.2577 33.9384 25.4952 42.3224 33.8109 45.5483C40.7229 48.2245 42.1267 47.6925 43.6194 47.5694C45.1134 47.4272 48.4611 45.6194 49.1443 43.7405C49.8288 41.8616 49.8288 40.248 49.6123 39.9116C49.4137 39.5751 48.8569 39.3796 48.046 38.9721C47.2365 38.5646 43.2043 36.6146 42.467 36.3493C41.7116 36.0839 41.1715 35.9417 40.6314 36.7568C40.0912 37.5541 38.525 39.3796 38.039 39.9116C37.5711 40.4435 37.0851 40.5146 36.2756 40.1071C35.4661 39.6996 32.8196 38.849 29.7065 36.1182C27.2767 33.9917 25.6396 31.3499 25.1536 30.5526C24.6856 29.7553 25.0994 29.3123 25.5132 28.9047C25.8729 28.5505 26.3228 27.9653 26.7365 27.4867C27.1503 27.0081 27.2767 26.6894 27.5461 26.1397C27.8155 25.6078 27.6905 25.1291 27.4739 24.7216C27.2767 24.3128 25.6924 20.343 24.9551 18.7472Z" fill="white"/>
</g>
<defs>
<linearGradient id="paint0_linear_253_827" x1="32.9911" y1="63.877" x2="32.9911" y2="1.12819" gradientUnits="userSpaceOnUse">
<stop stop-color="#20B038"/>
<stop offset="1" stop-color="#60D66A"/>
</linearGradient>
<linearGradient id="paint1_linear_253_827" x1="33" y1="64.9937" x2="33" y2="-0.00629759" gradientUnits="userSpaceOnUse">
<stop stop-color="#F9F9F9"/>
<stop offset="1" stop-color="white"/>
</linearGradient>
<clipPath id="clip0_253_827">
<rect width="66" height="65" fill="white"/>
</clipPath>
</defs>
</svg>
